<svg id="Group_25570" data-name="Group 25570" xmlns="http://www.w3.org/2000/svg" xmlns:xlink="http://www.w3.org/1999/xlink" width="83.008" height="83.008" viewBox="0 0 83.008 83.008">
  <defs>
    <clipPath id="clip-path">
      <circle id="Ellipse_459" data-name="Ellipse 459" cx="41.5" cy="41.5" r="41.5" transform="translate(0)" fill="#fff"/>
    </clipPath>
    <clipPath id="clip-path-2">
      <ellipse id="Ellipse_2590" data-name="Ellipse 2590" cx="45.739" cy="44.892" rx="45.739" ry="44.892" transform="translate(0 0)" fill="none"/>
    </clipPath>
    <clipPath id="clip-path-3">
      <path id="Path_18112" data-name="Path 18112" d="M.018.917a1.154,1.154,0,0,0-.018.2,1.137,1.137,0,0,0,.079.419.03.03,0,0,0,.028.02l.011,0a.031.031,0,0,0,.017-.041,1.073,1.073,0,0,1-.075-.4c0-.01,0-.021,0-.031s0,0,0,0,0-.021,0-.032h0A1.08,1.08,0,0,1,.078.929.031.031,0,0,0,.053.892H.048a.031.031,0,0,0-.03.026m.995,1a.8.8,0,0,1-.706-.8A.809.809,0,0,1,.543.543a.03.03,0,0,1,.043,0,.032.032,0,0,1,0,.044.746.746,0,0,0-.219.532.734.734,0,0,0,.651.739.031.031,0,0,1,0,.062h0M.525,1.847a.936.936,0,0,1-.342-.719A.924.924,0,0,1,.92.205.03.03,0,0,1,.956.23.031.031,0,0,1,.931.267a.862.862,0,0,0-.687.861.873.873,0,0,0,.319.67.032.032,0,0,1,0,.044.03.03,0,0,1-.043,0M1.093,0A1.1,1.1,0,0,0,.1.645.031.031,0,0,0,.118.686a.03.03,0,0,0,.013,0A.03.03,0,0,0,.158.671C.167.652.176.634.185.616h0A.033.033,0,0,1,.2.6.03.03,0,0,1,.227.6.031.031,0,0,1,.243.631a.026.026,0,0,1,0,.015,1.007,1.007,0,0,0-.117.473,1.02,1.02,0,0,0,.011.147v0l0,.022,0,.017,0,.011.006.028v0a1.012,1.012,0,0,0,.127.306l0,0,.016.025L.3,1.691l.013.018.01.014.007.01a.98.98,0,0,0,.373.3h0l.055.023a.031.031,0,0,1,.018.04.03.03,0,0,1-.029.02l-.011,0L.69,2.092a.029.029,0,0,0-.012,0,.03.03,0,0,0-.027.019.031.031,0,0,0,.016.041,1.074,1.074,0,0,0,.856,0,.5.5,0,0,1-.356-.479h0a.537.537,0,0,1-.075.005.549.549,0,0,1-.542-.555A.549.549,0,0,1,1.093.564.537.537,0,0,1,1.5.756a.03.03,0,0,0,.043,0,.032.032,0,0,0,0-.043l0,0L1.518.682A.593.593,0,0,0,1.093.5a.611.611,0,0,0-.6.618.624.624,0,0,0,.062.273.031.031,0,0,1-.014.042A.03.03,0,0,1,.5,1.42a.687.687,0,0,1-.068-.3.673.673,0,0,1,.664-.68.654.654,0,0,1,.459.189s.022.021.033.033a.03.03,0,0,0,.043,0,.032.032,0,0,0,0-.044L1.624.613,1.6.59,1.6.584,1.569.559A.711.711,0,0,0,.732.474.03.03,0,0,1,.69.463.032.032,0,0,1,.7.42a.771.771,0,0,1,.867.057h0l.012.009A.03.03,0,0,0,1.624.482a.035.035,0,0,0,0-.009.028.028,0,0,0,0-.015.035.035,0,0,0,0-.008l0,0,0,0A.833.833,0,0,0,1.249.266.031.031,0,0,1,1.225.229.031.031,0,0,1,1.26.2a.892.892,0,0,1,.392.182L1.69.416a.031.031,0,0,0,.043,0,.032.032,0,0,0,0-.044L1.7.348A.033.033,0,0,1,1.7.326.031.031,0,0,1,1.727.294.03.03,0,0,1,1.744.3l.01.007a1.064,1.064,0,0,1,.167.182A.03.03,0,0,0,1.964.5.032.032,0,0,0,1.97.452,1.09,1.09,0,0,0,1.093,0Z" transform="translate(0)"/>
    </clipPath>
  </defs>
  <g id="Group_25553" data-name="Group 25553" transform="translate(0 0)">
    <path id="Path_18130" data-name="Path 18130" d="M41.5,0A41.5,41.5,0,1,1,0,41.5,41.5,41.5,0,0,1,41.5,0Z" transform="translate(0 0)" fill="#131b2b"/>
    <g id="Mask_Group_47" data-name="Mask Group 47" transform="translate(0 0)" clip-path="url(#clip-path)">
      <g id="Group_25552" data-name="Group 25552" transform="translate(-5.082 0)">
        <g id="Group_25551" data-name="Group 25551" transform="translate(0 0)" clip-path="url(#clip-path-2)">
          <path id="Path_18046" data-name="Path 18046" d="M48.8,148.4a55.727,55.727,0,0,1,7.255-2.048.777.777,0,0,1,.334.372c.13,4.91,1.631,9.68,1.453,14.85a7.054,7.054,0,0,0,1.947-1.962c.18-.2.326-.423.487-.636,2.605-3.433,3.48-3.573,7.1-1.14,1.44,2.422,1.329,3.038-.976,4.473a92.635,92.635,0,0,0-14.178,11.014,46.231,46.231,0,0,0-6.76,6.927c-1.117,1.337-2.223,2.682-3.289,4.06-.4.519-.75,1.356-1.554,1.114-.82-.247-.557-1.136-.647-1.788-.011-.265-.014-.529-.026-.794-.513-5.3.632-10.4,1.761-15.516a34.316,34.316,0,0,0,.583-3.627c.557-2.69.872-5.428,1.572-8.091.367-1.1.683-2.219,1-3.334A5.193,5.193,0,0,1,48.8,148.4" transform="translate(-23.053 -90.54)" fill="#767676"/>
          <path id="Path_18047" data-name="Path 18047" d="M82.211,67.151a3.2,3.2,0,0,0-.92-2.415c-1.508-1.646-2.336-3.749-3.548-5.6-.277-.8-.271-1.75-1.185-2.206-3.69-1.136-4.549-6.528-2.06-9.7,1.261-.751,1.673-.625,2.085.653a8.513,8.513,0,0,1,.268,2.537,4.619,4.619,0,0,0,.224,1.735c.165.4.39.877.874.8.6-.095.422-.66.362-1.05a32.282,32.282,0,0,1-.144-4.634,4.4,4.4,0,0,1,.366-2.032,16.042,16.042,0,0,0,1.279-4.275c.469-2.463,1.935-3.813,4.448-3.728,3.462.118,6.921.31,10.387.3,1.091.2,1.333.684.378,1.386-2.032,1.493-2.305,3.5-2.037,5.838a95.2,95.2,0,0,1,.152,12.467c-.03,1.8-.971,2.492-2.8,2.425a1.541,1.541,0,0,0,1.071.048c1.675-.325,2.018-.092,2.087,1.571.089,2.13-.044,4.266.13,6.4.094,1.15-.7,1.7-1.606,2.141-2.815.888-5.219-.212-7.566-1.577-.722-.42-1.291-1.157-2.249-1.09" transform="translate(-43.639 -23.02)" fill="#fea98f"/>
          <path id="Path_18048" data-name="Path 18048" d="M96.423,23c-3.364.014-6.723-.068-10.086-.227-2.7-.128-3.784.876-4.25,3.52a16.559,16.559,0,0,1-1.271,4.261c-.77,1.638-.3,3.473-.258,5.226.011.479.161.958.142,1.433-.023.576.515,1.46-.364,1.647a1.611,1.611,0,0,1-1.825-1.25,11.216,11.216,0,0,1-.247-2.049c-.075-.744-.188-1.487-.2-2.233-.019-1.293-.621-1.535-1.7-1.041-.724-3.67.151-7.164,1.129-10.66a8.589,8.589,0,0,1,4.029-5.167c7.462-4.523,14.935-4.488,22.383.023a8.473,8.473,0,0,1,4.274,6.59,15.255,15.255,0,0,0,.847,2.729c.688,2.176-.016,4.344-.039,6.516-1.17.5-1.364,1.508-1.405,2.617a5.992,5.992,0,0,1-.442,2.971c-.476.811-1.124,1.577-2.162,1.251-1-.314-.716-1.255-.683-2.053.114-2.752.536-5.525-.881-8.14a12.948,12.948,0,0,1-.645-2.958c-.5-1.914-1.417-2.772-3.363-2.787-1.008-.008-1.961-.582-2.981-.22" transform="translate(-45.504 -8.075)" fill="#1c1e1f"/>
          <path id="Path_18049" data-name="Path 18049" d="M119.919,38.615a9.286,9.286,0,0,1,3.947-.171c1.724.212,2.5,1.45,2.872,3.017.945,4,2.405,7.931,1.4,12.171-.234.983.443,1.049,1.178.725a2.125,2.125,0,0,0,1.26-2.045c.065-1.168.256-2.332.281-3.5.029-1.35.677-1.345,1.628-.88a6.79,6.79,0,0,1,.988,6.515c-.47,1.4-1.177,2.652-2.875,2.859-.974.545-1.065,1.571-1.355,2.489a31.98,31.98,0,0,1-4.139,6.351c-.374.4-.238.9-.35,1.349-1.8.874-3.249,2.364-5.236,2.89-.794.21-1.587.7-2.382,0,1.693-.848,1.433-2.311,1.313-3.823a46.47,46.47,0,0,1-.018-4.79c.026-1.021-.223-1.6-1.37-1.128-.88.363-1.665-.148-2.491-.261-.306-.042-.632-.3-.451-.677.134-.28.446-.156.711-.087,2.628.682,3.266.171,3.268-2.605,0-2.823.009-5.645,0-8.467a20.059,20.059,0,0,0-.245-3.322c-.464-2.718.233-5.042,3.137-6.495l-1.066-.12" transform="translate(-69 -23.687)" fill="#fe997b"/>
          <path id="Path_18050" data-name="Path 18050" d="M110.611,117.335c.5,1.247.151,2.689.889,3.882a32.548,32.548,0,0,1,1.1,4.923,4.027,4.027,0,0,1-1.336,4c-5.465,3.578-11.157,3.379-16.969.993a7.449,7.449,0,0,1-2.315-1.7,3.691,3.691,0,0,1-.831-3.7c.411-1.409.273-2.966,1.152-4.25l.927-3.463c.9-.021,1.2.8,1.7,1.289a14.729,14.729,0,0,0,7.844,4.351c4.169.729,6.792-1.207,7.384-5.363.053-.369.073-.752.457-.963" transform="translate(-54.708 -72.586)" fill="#fea58a"/>
          <path id="Path_18051" data-name="Path 18051" d="M160.709,151.174c4.889,1.261,9.407,3.2,12.9,7.024.481.652.5,1.128-.424,1.385a13.718,13.718,0,0,1-4.449.27c-2.224-.112-2.424.142-2.029,2.322.168.93.537,1.872-.009,2.806a13.991,13.991,0,0,1-5.369.552c-2.307-.318-4.74-.906-7.065-.053-1.21.444-1.825.165-2.127-1.028a17.358,17.358,0,0,1,.908-8.2c2.231-1.133,4.7-1.572,7.052-2.348a13.235,13.235,0,0,0,2.4-.784c-.395-.923-1.751-.825-1.788-1.945" transform="translate(-92.471 -93.526)" fill="#484848"/>
          <path id="Path_18052" data-name="Path 18052" d="M132.96,141.619a29.132,29.132,0,0,0-.749,8.359c.257.935-.041,1.232-.937.8a4,4,0,0,1-1.411-1.258c-.64-.844-1.249-1.714-1.919-2.534s-1.259-1.924-2.521-1.558c-1.356.394-2.753.879-3.236,2.5-.287.964-.623,1.914-.988,2.854a3.938,3.938,0,0,1-.5,1.148c-.435.478-.994.438-.995-.2,0-1.66-.9-3.241-.4-4.931a55.359,55.359,0,0,0,6.817-6.988c.9-1.2,1.635-2.5,2.507-3.717a4.791,4.791,0,0,0,.929-4.293c-.3-1.406-.863-2.793-.618-4.284l.326.306a4.258,4.258,0,0,1,1.07,2.775,6.887,6.887,0,0,0,.56,2.65,3.556,3.556,0,0,1,.18,2.346c-.083.361-.184.8.277.967s.781-.131,1.1-.453c.377-.375.115-1.416,1.143-1.118a9.476,9.476,0,0,1-.638,6.628" transform="translate(-72.148 -78.888)" fill="#3e3e3e"/>
          <path id="Path_18053" data-name="Path 18053" d="M87.1,128.221a15.014,15.014,0,0,1-.7,4.187,4.5,4.5,0,0,0,.627,3.6c.989,1.393,1.76,2.932,2.858,4.251a39.686,39.686,0,0,0,5.738,5.935,1.2,1.2,0,0,1,.565,1.078.674.674,0,0,1-.746.455,2.934,2.934,0,0,1-1.687-.833c-.622-.3-1.256-.581-1.865-.908-1.9-1.019-2.345-.956-3.785.755-.927,1.1-1.775,2.266-2.69,3.377a2.16,2.16,0,0,1-1.564.993c.395-4.758-1.142-9.283-1.285-13.955-.018-.581.058-1.166.091-1.748.788.113.584.78.649,1.247a11.257,11.257,0,0,0,.457,2.186,1.19,1.19,0,0,0,1.68.754c.759-.259.459-.924.24-1.349-1.471-2.854-.062-5.624.207-8.422a2.459,2.459,0,0,1,.859-1.5l.353-.1" transform="translate(-49.505 -79.322)" fill="#3e3e3e"/>
          <path id="Path_18054" data-name="Path 18054" d="M113.984,114.987c-.266,4.554-1.812,6.446-5.856,6.9a10.119,10.119,0,0,1-5.377-1.238,16.7,16.7,0,0,1-6.148-4.981c-.434-.451.045-.868.05-1.3l.472-.829a11.4,11.4,0,0,0,9.09,3.4c2.534-.045,4.549-1.29,6.456-2.788.364-.286.7-.963,1.163-.1q.075.469.15.94" transform="translate(-58.081 -70.237)" fill="#ce4c34"/>
          <path id="Path_18055" data-name="Path 18055" d="M189.442,176.329a10.324,10.324,0,0,0-.374-3.152c-.382-2.254,0-2.727,2.305-2.437a20.434,20.434,0,0,0,4.423-.089c1.073-.1.5-.691.676-1.049,2.071,2.042,3.085,4.655,3.939,7.345a32.75,32.75,0,0,1,1.493,5.825c-.2.61-.441.99-.979.22-.123-.176.13-.766-.471-.495-1.459-2-1.924-4.437-2.963-6.622-.133-.279-.246-.582-.353-.88-.031-.212-.238.132-.045.041.032-.015.031.041.072.138a.828.828,0,0,1-.1.9,2.63,2.63,0,0,1-2.19.721c-1.644.012-3.287.016-4.932.029-.287-.041-.55-.109-.5-.493" transform="translate(-115.332 -104.929)" fill="#484848"/>
          <path id="Path_18056" data-name="Path 18056" d="M30.081,168.785a75.976,75.976,0,0,1-1.555,8.167,1.548,1.548,0,0,1-.36-.284,14.594,14.594,0,0,0-4.763-.954c-.783-.044-1.627.046-2.038-.871a1.115,1.115,0,0,1,.142-.874c-1.219,2.431-1.8,5.145-3.289,7.455-.4-.329-.837.842-1.233-.022.968-4.482,1.9-8.977,5.1-12.552a1.747,1.747,0,0,0,1.515.58,16.569,16.569,0,0,1,3.481-.021c1.024.1,2.046.257,2.416-1.1.061-.226.315-.528.593-.33s.253.539-.01.807" transform="translate(-8.925 -103.885)" fill="#484848"/>
          <path id="Path_18057" data-name="Path 18057" d="M38.365,158.765a1.189,1.189,0,0,0,.01-.315c-.058-.246-.264-.4-.285-.042-.1,1.764-1.158,1.6-2.459,1.447a21.615,21.615,0,0,0-4.405-.006c-.982.087-.837-.46-.856-1.018,2.373-2.993,5.683-4.591,9.076-6.043a10.405,10.405,0,0,1,3.506-1.066c-3.3,1.2-3.476,4.423-4.587,7.043" transform="translate(-17.208 -93.865)" fill="#484848"/>
          <path id="Path_18058" data-name="Path 18058" d="M155.375,153.224c.152-2.215.727-4.406.358-6.649a.237.237,0,0,1,.163-.3l6.906,1.869c.555.707,1.462.829,2.159,1.3.531.356.846,1.007.053,1.157-3.288.623-6.35,2.041-9.639,2.628" transform="translate(-94.563 -90.492)" fill="#767676"/>
          <path id="Path_18059" data-name="Path 18059" d="M86.655,128.485c-.905,2.042-.65,4.328-1.407,6.45-.351.986.574,2.405.847,3.644.124.562.957,1.461-.234,1.645-.894.138-2.247.7-2.6-.939-.263-1.232-.47-2.476-.7-3.715a.655.655,0,0,1-.151-.277c.522-1.935.924-3.93,2.371-5.451.531-.558,1-1.251,1.872-1.359" transform="translate(-49.412 -79.485)" fill="#3e3e3e"/>
          <path id="Path_18060" data-name="Path 18060" d="M197.476,182.469c-.021-.583-.62-1-.441-1.939a8.968,8.968,0,0,1,1.525,2.812c.428.976.825,1.965,1.237,2.948s.82,1.952,1.23,2.928a20.005,20.005,0,0,1,2.365,7.868,5.9,5.9,0,0,1-.27,2.676c-.569,1.655-.366,2.119,1.369,2.639a6.36,6.36,0,0,1,2.918,1.516c.27.527-.22.3-.391.4a.67.67,0,0,1-.607.1c-1.077-.429-1.83-.231-2.189.983-.127.43-.6.576-.982.759-.234-.016-.505.055-.61-.262.579-2.187.366-2.405-2.055-2.071a48.407,48.407,0,0,0-9.1,2.23c-.618.212-1.552.794-1.841.032-.326-.858.786-1.052,1.419-1.354a7.587,7.587,0,0,1,1.644-.6,28.871,28.871,0,0,1,9.226-1.684,1.122,1.122,0,0,1-.747-1.708c1.277-2.716.637-5.317-.271-7.932a6.38,6.38,0,0,1-.3-1.406,44.273,44.273,0,0,0-2.706-6.993c-.28-.613-.766-1.194-.417-1.946" transform="translate(-115.724 -111.692)" fill="#ddeaf8"/>
          <path id="Path_18061" data-name="Path 18061" d="M7.567,205.909c-.091.333-.365.273-.607.282a2.241,2.241,0,0,1-.549-.293c-1.547-1.363-1.545-1.366-3.068-1.408-.211-.242-.982-.251-.35-.842a26.92,26.92,0,0,1,3.337-1.457c.983-.439,1.414-1.093.853-2.149a1.562,1.562,0,0,1-.215-.6,16.543,16.543,0,0,1,2.2-10.193c1.383-2.79,2.142-5.87,3.869-8.686.447.9-.313,1.335-.311,1.937-.4,2.613-1.935,4.821-2.618,7.334a34.037,34.037,0,0,0-1.652,6.177,6.939,6.939,0,0,0,.379,4.232c.491,1.112.415,1.188-.386,2.042a32.473,32.473,0,0,1,7.248,1.178c.611.164,1.274.256,1.619.905.138.211.194.418-.027.613-.579.384-1.139.085-1.691-.066A35.554,35.554,0,0,0,9.615,203.8c-2.392-.232-2.467-.113-2.048,2.109" transform="translate(-0.116 -111.714)" fill="#d8eaf7"/>
          <path id="Path_18062" data-name="Path 18062" d="M226.007,217.811c-1.463-.868-3.277-.829-4.7-1.855-.485-.35-.939-.6-.537-1.224,1.538-2.4.665-4.842.108-7.258-.34-1.473-.833-2.91-1.258-4.364.495-.387.485.194.555.355.308.7.486.073.714-.039,1.338,4.925,1.973,10.1,5.113,14.385" transform="translate(-134.321 -125.584)" fill="#1c2b63"/>
          <path id="Path_18063" data-name="Path 18063" d="M9.564,203.143a37.78,37.78,0,0,0-1.829,6.983,5.835,5.835,0,0,0,.541,4.321c.487.762.3,1.173-.521,1.594a11.434,11.434,0,0,1-4.364,1.5c2.648-3.062,3.259-6.929,4.182-10.665a28.286,28.286,0,0,1,1-3.751c.322.424.67-.414.992.02" transform="translate(-0.512 -125.605)" fill="#1d2c63"/>
          <path id="Path_18064" data-name="Path 18064" d="M149.9,135.165l-.162.3c-.275,1.209-.485,2.48-2.239,2.175-.363-.063-.841-.008-.681-.59.844-3.073-.781-5.817-1.134-8.73,2.794,1.425,3.6,4.077,4.217,6.842" transform="translate(-88.562 -79.385)" fill="#3e3e3e"/>
          <path id="Path_18065" data-name="Path 18065" d="M153.878,90.626c.118-1.012-.27-2.3,1.355-2.49l-1.355,2.49" transform="translate(-93.636 -54.517)" fill="#593d2e"/>
          <path id="Path_18066" data-name="Path 18066" d="M82.2,88.332c.169-.394.53-.488.667-.113.269.74.818,1.445.518,2.319L82.2,88.332" transform="translate(-49.28 -54.421)" fill="#64483d"/>
          <path id="Path_18067" data-name="Path 18067" d="M77.909,178a.69.69,0,0,0,.661-.321.593.593,0,0,1,.926.078c-.45,1.75.866,3.338.237,5.155,1.012-.191.481-1.127,1.043-1.384.579.551.454,1.28.465,1.959.029,1.815,0,3.632.017,5.447.008.735.137,1.522.951,1.661a12.429,12.429,0,0,0,9.424-2.115c1.1.541,2.689.5,3.237,1.4,1.543,2.541-.351.314,2.205-.945,1.261-.621.366-.5.88-1.679.141-.3.8.662.83.343.046-.52,1.257-2.966,1.809-3.05.707-.107,2.956,5.491,3.089,5.955.156.54.541.541.985.587,1.048.11,2.1-.121,3.147.092.368,1.188-.275,2.212-.644,3.225-2.079,5.707-6.044,8.4-11.791,8.736-2.94.175-5.862-.207-8.792-.312a7.853,7.853,0,0,0-1.28.034c-.266.034-.569.082-.629.386-.055.285.156.5.385.65a14.1,14.1,0,0,0,2.021.958c.336.156,1.112.148.606.915-1.365.573-2.74.038-4.079-.069-4.117-.329-8.22-.847-12.331-1.264a2.018,2.018,0,0,1-.9-.29c-.45-.538-1.067-.367-1.639-.369-2.82-.008-3.151-.241-4.032-2.852a2.965,2.965,0,0,0-.286-.74c-.086.016-.132.088-.168.21-.873,3.028-.874,3.03-4.022,3.066-.426,0-.852.051-1.279.027-.657-.48-.571-.9.208-.957a7.187,7.187,0,0,1,1.664.014c-1.977.226-3.765-.922-5.573-1.982a1.762,1.762,0,0,1-.972-1.384,42.491,42.491,0,0,1,6.563-6.812c3.856.248,7.71.753,11.573.08a17.984,17.984,0,0,1,2.551.141c1.5-.047,2.039-.516,2.105-2.015.079-1.813.1-3.633,0-5.442-.1-1.966.754-3.858.338-5.841A1.327,1.327,0,0,1,77.909,178" transform="translate(-32.009 -109.81)" fill="#484848"/>
          <path id="Path_18068" data-name="Path 18068" d="M88.565,177.823c.058.963-.257,1.9.237,2.9.459.934-.682,1.768-.605,2.855.146,2.074-.048,4.169.055,6.248.145,2.961-1.006,3.274-3.333,3.045a5.158,5.158,0,0,0-3.082.237,3.484,3.484,0,0,1-2.049.07,17.379,17.379,0,0,0-6.184-.058,2.414,2.414,0,0,1-2.1-.931,79.174,79.174,0,0,1,11.1-9.012,29.736,29.736,0,0,1,3.61-2.338c1.346-.653,1.769-1.4,1-2.733a4.555,4.555,0,0,1-.3-.9,3.366,3.366,0,0,1,1.651.613" transform="translate(-42.664 -109.637)" fill="#484848"/>
          <path id="Path_18069" data-name="Path 18069" d="M25.224,210.6a33.417,33.417,0,0,0-9.695-1.645c1.416-.807,1.28-1.651.706-2.56a3.983,3.983,0,0,1-.528-2.618,29.807,29.807,0,0,1,2.023-8.005c.555-.061.916.348.8.736-.334,1.15.367,1.077,1.027.928,1.852-.419,3.8.1,5.648-.75.569-.261.781-.393.839-.929a25.759,25.759,0,0,1,.8-4.056c.117-.426.043-1.008.717-1.073l.057.38a33.232,33.232,0,0,1-1.179,7.07,48.055,48.055,0,0,0-1.222,12.52" transform="translate(-8.024 -117.938)" fill="#484848"/>
          <path id="Path_18070" data-name="Path 18070" d="M28.359,234.39a12.214,12.214,0,0,0,7.193,3.314c-.306.369-.717.156-1.076.188s-.747-.021-1.117.008c-.469.037-.792.172-.223.61,1.165.283,2.359.531,2.416,2.094a.981.981,0,0,1-.426.2,7.059,7.059,0,0,0-6.75,5.467c-.083.292-.219.6-.594.667a1.027,1.027,0,0,1-1.153.6c-2.127.767-2.873.345-3.046-1.872-.092-1.179-.716-2.4.109-3.561.307-1.433-.692-1.713-1.725-1.88a31.191,31.191,0,0,0-6.906-.73,2.413,2.413,0,0,1-1.53-.276,6.426,6.426,0,0,1-.858-.929c-.595-.958-.247-1.579.9-1.634,3.345-.159,6.513.737,9.68,1.638.285.438,0,1.069.555,1.527,1.618-1.739,2.779-3.848,4.551-5.427" transform="translate(-6.08 -145.021)" fill="#163a78"/>
          <path id="Path_18071" data-name="Path 18071" d="M156.7,227.783c-1.408.813-2.811.008-4.168-.137-5.57-.6-11.153-.938-16.742-1.227-1.027-.393-2.075-.74-3.071-1.2a1.445,1.445,0,0,1-.94-1.362c.114-.785.9-.575,1.454-.589,3.465-.085,6.912.6,10.379.308,3.687-.3,6.864-1.591,9.167-4.711a19.978,19.978,0,0,0,2.879-6.833.5.5,0,0,1,.069-.73.66.66,0,0,1,.764.151c.919,1.866.887,3.936,1.033,5.913.124,1.67-.113,3.393-.073,5.1.01.432-.008.865-.5,1.068a16.6,16.6,0,0,0-3.265,1.444c.743.38,1.225-.074,1.707-.244a37.082,37.082,0,0,1,10.35-2.344c.722-.037,1.747-.492,2.161.4.431.927-.467,1.513-1.042,2.118-1.957.606-4.03.029-6,.605a28.888,28.888,0,0,1-3.117.66c-.961.17-1.207.748-1.046,1.616" transform="translate(-79.956 -130.698)" fill="#a2a2a2"/>
          <path id="Path_18072" data-name="Path 18072" d="M96.9,153.112c-1.117-1.344-2.289-2.656-2.624-4.461,6.209,4.19,12.534,4.168,18.959.521-.206,1.635-1.363,2.72-2.279,3.944-1.117.907-2.249,1.329-3.6.375a2.56,2.56,0,0,0-2.013-.157,10.428,10.428,0,0,1-4.407-.066,2.744,2.744,0,0,0-2.015.128,1.6,1.6,0,0,1-2.025-.284" transform="translate(-56.752 -91.964)" fill="#3e3e3e"/>
          <path id="Path_18073" data-name="Path 18073" d="M150.694,187.64l-.017.63c-1.279,1.017-2.772.176-4.158.383-.6.09-.053-1.316-.451-1.984-.41.716.156,1.609-.444,2.26-.769-.673-.443-1.582-.482-2.393-.154-3.229-4.238-6.193-7.327-5.322a4.549,4.549,0,0,0-3.336,3.853c-.115.556.04,1.19-.5,1.612a1.892,1.892,0,0,1-1.718,1.508,18.932,18.932,0,0,1-7.024.116,1.657,1.657,0,0,1-1.513-1.969c.107-2.557.024-5.122.019-7.684a13.164,13.164,0,0,0,.645-2.116c.3-2.276,2.158-2.848,3.846-3.577a1.54,1.54,0,0,1,1.834.638c.973,1.2,1.942,2.4,2.859,3.634a5.087,5.087,0,0,0,1.5,1.408c.855.5.43-.377.609-.609.3.784.767,1.118,1.481.468a2.521,2.521,0,0,1,2.1-.464c1.51.132,3.381-.236,4.442.226,1.776.773,3.24-.238,4.78.153a4.06,4.06,0,0,0,1.245-.074l.332.32c1.131,2.136.91,4.555,1.408,6.825a2.436,2.436,0,0,1-.128,2.161" transform="translate(-74.974 -106.934)" fill="#484848"/>
          <path id="Path_18074" data-name="Path 18074" d="M101.157,159.435c.633.094,1.2.524,1.87-.2.643-.69,1.641-.22,2.437-.056a10.525,10.525,0,0,0,3.947.053c1.036-.172,2.109-.4,3.115.591.781.77,1.755-.366,2.685-.383a37.02,37.02,0,0,1-6.713,6.79l-.926-.077a49.392,49.392,0,0,1-6.417-6.717" transform="translate(-61.012 -98.287)" fill="#767676"/>
          <path id="Path_18075" data-name="Path 18075" d="M192.406,195.546l-1.28-8.986c1.671-.671,3.413-.2,5.119-.3a3.089,3.089,0,0,0,2.192-.646,58.692,58.692,0,0,1,3.5,8.665c-.054.661-.445.85-1.067.865a16.872,16.872,0,0,1-2.989.007,9.147,9.147,0,0,0-4.835.4l-.638-.009" transform="translate(-116.686 -114.84)" fill="#2a5e9b"/>
          <path id="Path_18076" data-name="Path 18076" d="M31.141,187.545a48.514,48.514,0,0,0-1.248,5.993c-.07.456-.014,1.24-.751.362-.053-.063-.236-.114-.272-.079-1.612,1.537-3.691.374-5.488.94-.774.244-2.2.74-1.528-1.194.127-.368-.2-.689-.553-.879a45.05,45.05,0,0,1,2.9-7.04c.294.29.526.7,1.033.609,1.874-.336,3.605.69,5.452.56.685-.048.432.406.45.728" transform="translate(-11.597 -114.859)" fill="#3e3e3e"/>
          <path id="Path_18077" data-name="Path 18077" d="M196.159,209.621c1.594-1.646,3.517-.876,5.358-.736a6.279,6.279,0,0,0,3.533-.536c.422,2.117,1.36,4.11,1.441,6.316a5.4,5.4,0,0,1-.484,2.623c-.688,1.437-.672,1.445.38,2.679a38.534,38.534,0,0,0-9.591,1.771c.066-4.054.209-8.112-.636-12.118" transform="translate(-119.8 -128.906)" fill="#484848"/>
          <path id="Path_18078" data-name="Path 18078" d="M74.053,240.608c-1.542-.73-3.216-.076-4.79-.465l-2.443-1.816c.829-.773,1.816-.276,2.7-.248a1.368,1.368,0,0,0,1.646-1.227c.21-.926.531-1.826.81-2.758.143.091.3.137.307.2q.686,4.88,5.542,4.078c.072-.012.2.08.236.156.024.043-.07.151-.111.229-1.319.576-3,.4-3.9,1.848" transform="translate(-39.764 -144.838)" fill="#f8fbfb"/>
          <path id="Path_18079" data-name="Path 18079" d="M150.629,199.291c-.043-4.588,2.5-6.059,5.138-6.064a6.933,6.933,0,0,1,6.51,6.242c.041.688,0,1.381,0,2.072-1.378,4.47-6.427,4.859-9.5,1.851a6.709,6.709,0,0,1-2.142-4.1" transform="translate(-93.026 -123.751)" fill="#e2f4fb"/>
          <path id="Path_18080" data-name="Path 18080" d="M155,204.2a5.579,5.579,0,0,1-2.407-5.792c.591-3.366,4.315-4.708,7.392-2.77a5.91,5.91,0,0,1,2.377,7.455c-.726-.059-.627-.639-.541-1.041a2.013,2.013,0,0,0-.872-2.025c-.406-.566-.619-1.243-1.052-1.794a3.006,3.006,0,0,0-3.427-1.033c-1.128.517-1.567,1.593-1.284,3.129a13.7,13.7,0,0,1,.372,1.39c-.376.783-.241,1.683-.556,2.48" transform="translate(-94.176 -124.687)" fill="#484848"/>
          <path id="Path_18081" data-name="Path 18081" d="M164.778,208.267c1.009.42,1.564,1.027,1,2.189a.794.794,0,0,0,.2,1c-1.5,2.762-4.739,3.249-7.362,1.106-.278-.837-.579-1.678.342-2.341.488-.245.776.151,1.12.355,2.1,1.247,3.478.76,4.249-1.511.1-.3.145-.619.448-.8" transform="translate(-97.799 -133.058)" fill="#484848"/>
          <path id="Path_18082" data-name="Path 18082" d="M164.586,202.8c-.034,1.4-.345,2.682-1.821,3.237-1.637.614-2.859-.237-3.995-1.279-.075-.138-.157-.274-.225-.416-.977-2.039-.535-3.91,1.1-4.657a3.615,3.615,0,0,1,4.574,2.068c.154.335.247.7.369,1.047" transform="translate(-97.607 -127.589)" fill="#f6f9fc"/>
        </g>
      </g>
    </g>
  </g>
  <g id="Group_25569" data-name="Group 25569" transform="translate(57.272 74.188) rotate(-16)">
    <path id="Path_18111" data-name="Path 18111" d="M.056.036A.028.028,0,1,1,.036,0a.028.028,0,0,1,.02.035" transform="translate(1.968 0.517)"/>
    <g id="Group_25563" data-name="Group 25563" transform="translate(0 0)">
      <g id="Group_25562" data-name="Group 25562" transform="translate(0 0)" clip-path="url(#clip-path-3)">
        <rect id="Rectangle_12978" data-name="Rectangle 12978" width="1.98" height="2.238" transform="translate(0 0)"/>
      </g>
    </g>
    <path id="Path_18113" data-name="Path 18113" d="M.057.028A.028.028,0,1,1,.028,0,.028.028,0,0,1,.057.028" transform="translate(1.663 0.494)"/>
    <path id="Path_18114" data-name="Path 18114" d="M.056.034A.028.028,0,1,1,.034,0,.028.028,0,0,1,.056.034" transform="translate(1.634 0.683)"/>
    <path id="Path_18115" data-name="Path 18115" d="M.055.038A.028.028,0,1,1,.038,0,.028.028,0,0,1,.055.038" transform="translate(1.703 0.763)"/>
    <path id="Path_18116" data-name="Path 18116" d="M.057.03A.028.028,0,1,1,.03,0,.028.028,0,0,1,.057.03" transform="translate(1.763 0.427)"/>
    <path id="Path_18117" data-name="Path 18117" d="M.056.033A.028.028,0,1,1,.033,0,.028.028,0,0,1,.056.033" transform="translate(1.818 0.499)"/>
    <path id="Path_18118" data-name="Path 18118" d="M.055.038A.028.028,0,1,1,.038,0,.028.028,0,0,1,.055.038" transform="translate(0.047 0.759)"/>
    <path id="Path_18119" data-name="Path 18119" d="M0,.036a.028.028,0,1,1,.035.02A.028.028,0,0,1,0,.036" transform="translate(0.564 2.07)"/>
    <path id="Path_18120" data-name="Path 18120" d="M0,.032A.028.028,0,1,1,.032.057.028.028,0,0,1,0,.032" transform="translate(0.487 2.025)"/>
    <path id="Subtraction_1" data-name="Subtraction 1" d="M.366.733A.364.364,0,0,1,.228.706L.245.7a.012.012,0,0,0,0-.024h0L.191.688A.368.368,0,0,1,.137.652.446.446,0,0,0,.3.609a.451.451,0,0,0,.134-.1A.449.449,0,0,0,.56.2.447.447,0,0,0,.529.038.367.367,0,0,1,.585.072h0A.49.49,0,0,1,.6.136.012.012,0,0,0,.61.147h0A.012.012,0,0,0,.622.133C.621.122.619.11.616.1a.366.366,0,0,1-.25.634Zm0-.106-.006,0A.5.5,0,0,1,.3.657.012.012,0,0,0,.3.68h0A.523.523,0,0,0,.37.649a.012.012,0,0,0,0-.017A.012.012,0,0,0,.364.626Zm.1-.081a.012.012,0,0,0-.009,0A.5.5,0,0,1,.411.592.012.012,0,0,0,.418.614l.007,0A.525.525,0,0,0,.476.566.012.012,0,0,0,.468.546Zm.08-.1A.012.012,0,0,0,.537.447.5.5,0,0,1,.5.5.012.012,0,0,0,.5.518l.007,0a.012.012,0,0,0,.01,0A.524.524,0,0,0,.558.459a.012.012,0,0,0,0-.017ZM.6.319A.012.012,0,0,0,.586.328.494.494,0,0,1,.565.389.012.012,0,0,0,.572.405h0A.012.012,0,0,0,.588.4.516.516,0,0,0,.61.334.012.012,0,0,0,.6.319ZM.615.188A.012.012,0,0,0,.6.2v0A.5.5,0,0,1,.6.265.012.012,0,0,0,.609.279h0A.012.012,0,0,0,.623.268.522.522,0,0,0,.627.2v0A.012.012,0,0,0,.615.188ZM.11.623h0A.369.369,0,0,1,.068.579l.042,0h0a.012.012,0,1,0,0-.024h0a.358.358,0,0,1-.059,0A.367.367,0,0,1,.49.021.419.419,0,0,1,.52.108.421.421,0,0,1,.11.623ZM.236.534h0a.354.354,0,0,1-.06.016.012.012,0,0,0,0,.024h0A.376.376,0,0,0,.241.558a.012.012,0,0,0,0-.024ZM.346.47a.012.012,0,0,0-.008,0,.357.357,0,0,1-.05.036A.012.012,0,0,0,.294.531L.3.529A.382.382,0,0,0,.354.491.012.012,0,0,0,.346.47Zm.082-.1A.012.012,0,0,0,.417.378.358.358,0,0,1,.382.429.012.012,0,1,0,.4.445.382.382,0,0,0,.438.39a.012.012,0,0,0,0-.017ZM.471.252a.012.012,0,0,0-.012.01.352.352,0,0,1-.016.06A.012.012,0,0,0,.451.338h0A.012.012,0,0,0,.466.33.377.377,0,0,0,.483.267.012.012,0,0,0,.473.253Zm0-.127h0a.012.012,0,0,0-.01.014A.356.356,0,0,1,.464.2.012.012,0,0,0,.489.2.38.38,0,0,0,.483.135.012.012,0,0,0,.471.125ZM.427.006.42.007a.012.012,0,0,0,0,.017A.353.353,0,0,1,.442.08.012.012,0,0,0,.454.088h0A.012.012,0,0,0,.465.071.377.377,0,0,0,.437.012.012.012,0,0,0,.427.006Z" transform="translate(1.309 1.356)" stroke="rgba(0,0,0,0)" stroke-width="1"/>
  </g>
</svg>
