<svg xmlns="http://www.w3.org/2000/svg" width="15.6" height="15.6" viewBox="0 0 15.6 15.6"><defs><style>.a{fill:none;stroke:#2a3149;stroke-linecap:round;stroke-linejoin:round;stroke-width:0.6px;}</style></defs><g transform="translate(0.3 0.3)"><path class="a" d="M97.152-46.675h0a1.957,1.957,0,0,1,1.957-1.956h11.086a1.957,1.957,0,0,1,1.957,1.956h0" transform="translate(-97.152 50.588)"/><path class="a" d="M107.587-48.631h-6.522a1.957,1.957,0,0,1,1.957-1.957h2.608a1.957,1.957,0,0,1,1.957,1.957Z" transform="translate(-97.152 50.588)"/><path class="a" d="M110.2-47.327v11.739H99.109V-47.327" transform="translate(-97.152 50.588)"/><line class="a" y2="7.826" transform="translate(4.565 5.218)"/><line class="a" y2="7.826" transform="translate(7.826 5.218)"/><line class="a" y2="7.826" transform="translate(11.087 5.218)"/></g></svg>