<?xml version="1.0" encoding="UTF-8" standalone="no" ?>
<!DOCTYPE svg PUBLIC "-//W3C//DTD SVG 1.1//EN" "http://www.w3.org/Graphics/SVG/1.1/DTD/svg11.dtd">
<svg xmlns="http://www.w3.org/2000/svg" xmlns:xlink="http://www.w3.org/1999/xlink" version="1.1" width="500" height="468.12" xml:space="preserve">
<desc>Created with Fabric.js 1.6.0-rc.1</desc>
<defs></defs>
<g style="stroke: none; stroke-width: 1; stroke-dasharray: none; stroke-linecap: butt; stroke-linejoin: miter; stroke-miterlimit: 10; fill: none; fill-rule: nonzero; opacity: 1;" transform="translate(10 37) scale(0.98 0.81)" >
  <path d="M 457.796 355.501 c 5.549 -6.566 9.028 -14.946 9.028 -24.207 c 0 -12.371 -6.061 -23.258 -15.262 -30.118 c 9.201 -6.859 15.262 -17.732 15.262 -30.118 c 0 -12.371 -6.061 -23.258 -15.262 -30.118 c 9.201 -6.859 15.262 -17.739 15.262 -30.118 c 0 -12.371 -6.061 -23.258 -15.262 -30.118 c 9.201 -6.859 15.262 -17.739 15.262 -30.118 c 0 -9.261 -3.479 -17.641 -9.028 -24.2 c 13.892 -4.224 24.087 -16.994 24.087 -32.271 c 0 -18.711 -15.179 -33.882 -33.882 -33.882 c -15.112 0 -27.768 9.954 -32.136 23.62 c -6.573 -5.662 -15.059 -8.998 -24.335 -8.561 c -12.424 0.602 -23.243 6.648 -30.095 15.292 c -6.859 -9.231 -17.754 -15.292 -30.14 -15.292 c -12.386 0 -23.251 6.046 -30.118 15.262 c -6.867 -9.216 -17.732 -15.262 -30.118 -15.262 c -12.386 0 -23.251 6.046 -30.118 15.262 c -6.867 -9.216 -17.739 -15.262 -30.118 -15.262 s -23.251 6.046 -30.118 15.262 c -6.867 -9.216 -17.739 -15.262 -30.118 -15.262 c -12.378 0 -23.251 6.046 -30.118 15.262 c -6.867 -9.216 -17.739 -15.262 -30.118 -15.262 c -9.261 0 -17.641 3.479 -24.2 9.028 C 61.937 70.423 49.16 60.235 33.882 60.235 C 15.172 60.235 0 75.407 0 94.118 c 0 15.277 10.187 28.047 24.087 32.271 c -5.549 6.558 -9.028 14.938 -9.028 24.2 c 0 12.378 6.054 23.258 15.262 30.118 c -9.208 6.859 -15.262 17.747 -15.262 30.118 c 0 12.378 6.054 23.258 15.262 30.118 c -9.208 6.859 -15.262 17.747 -15.262 30.118 c 0 12.386 6.054 23.258 15.262 30.118 c -9.208 6.859 -15.262 17.747 -15.262 30.118 c 0 9.261 3.479 17.641 9.028 24.207 C 10.187 359.703 0 372.488 0 387.765 c 0 18.718 15.172 33.882 33.882 33.882 c 15.277 0 28.055 -10.18 32.271 -24.087 c 6.558 5.557 14.938 9.028 24.2 9.028 c 12.378 0 23.251 -6.046 30.118 -15.262 c 6.867 9.216 17.739 15.262 30.118 15.262 c 12.378 0 23.251 -6.046 30.118 -15.262 c 6.867 9.216 17.739 15.262 30.118 15.262 s 23.251 -6.046 30.118 -15.262 c 6.867 9.216 17.732 15.262 30.118 15.262 c 12.386 0 23.251 -6.046 30.118 -15.262 c 6.867 9.216 17.732 15.262 30.118 15.262 c 12.386 0 23.258 -6.046 30.118 -15.262 c 6.867 9.216 17.732 15.262 30.118 15.262 c 9.261 0 17.641 -3.471 24.2 -9.028 c 4.209 13.907 16.994 24.087 32.271 24.087 c 18.703 0 33.882 -15.164 33.882 -33.882 C 481.882 372.488 471.688 359.703 457.796 355.501 z" style="stroke: none; stroke-width: 1; stroke-dasharray: none; stroke-linecap: butt; stroke-linejoin: miter; stroke-miterlimit: 10; fill: #FDD835; fill-rule: nonzero; opacity: 1;" transform=" matrix(1 0 0 1 0 0) " stroke-linecap="round" />
  <path d="M 331.294 75.294 c -12.386 0 -23.251 6.046 -30.118 15.262 c -6.867 -9.216 -17.732 -15.262 -30.118 -15.262 c -12.386 0 -23.251 6.046 -30.118 15.262 c -6.867 -9.216 -17.739 -15.262 -30.118 -15.262 s -23.251 6.046 -30.118 15.262 c -6.867 -9.216 -17.739 -15.262 -30.118 -15.262 c -12.378 0 -23.251 6.046 -30.118 15.262 c -6.867 -9.216 -17.739 -15.262 -30.118 -15.262 c -9.261 0 -17.641 3.479 -24.2 9.028 C 61.937 70.423 49.16 60.235 33.882 60.235 C 15.172 60.235 0 75.407 0 94.118 c 0 15.277 10.187 28.047 24.087 32.271 c -5.549 6.558 -9.028 14.938 -9.028 24.2 c 0 12.378 6.054 23.258 15.262 30.118 c -9.208 6.859 -15.262 17.747 -15.262 30.118 c 0 12.378 6.054 23.258 15.262 30.118 c -9.208 6.859 -15.262 17.747 -15.262 30.118 c 0 12.386 6.054 23.258 15.262 30.118 c -9.208 6.859 -15.262 17.747 -15.262 30.118 c 0 9.261 3.479 17.641 9.028 24.207 C 10.187 359.703 0 372.488 0 387.765 c 0 8.162 2.997 15.541 7.8 21.384 L 340.503 76.454 C 337.551 75.708 334.472 75.294 331.294 75.294 z" style="stroke: none; stroke-width: 1; stroke-dasharray: none; stroke-linecap: butt; stroke-linejoin: miter; stroke-miterlimit: 10; fill: #FFEE58; fill-rule: nonzero; opacity: 1;" transform=" matrix(1 0 0 1 0 0) " stroke-linecap="round" />
  <rect x="60.23" y="120.47" rx="0" ry="0" width="361.41" height="240.94" style="stroke: none; stroke-width: 1; stroke-dasharray: none; stroke-linecap: butt; stroke-linejoin: miter; stroke-miterlimit: 10; fill: #1e293b; fill-rule: nonzero; opacity: 1;" transform=" matrix(1 0 0 1 0 0) "/>
  <path d="M 230.822 194.786 h -8.192 h -10.082 v -31.345 c 0 -2.763 -2.176 -4.939 -4.932 -4.939 c -2.763 0 -4.939 2.176 -4.939 4.939 v 35.381 c 0 2.756 2.176 4.932 4.939 4.932 h 6.031 h 17.175 c 2.5 0 4.488 -1.98 4.488 -4.488 C 235.309 196.774 233.321 194.786 230.822 194.786 z" style="stroke: none; stroke-width: 1; stroke-dasharray: none; stroke-linecap: butt; stroke-linejoin: miter; stroke-miterlimit: 10; fill: #1e293b; fill-rule: nonzero; opacity: 1;" transform=" matrix(1 0 0 1 0 0) " stroke-linecap="round" />
  <path d="M 334.223 158.63 h -1.099 c -1.988 0 -3.396 0.828 -4.427 2.5 l -11.987 19.486 l -11.927 -19.426 c -0.896 -1.468 -2.364 -2.56 -4.495 -2.56 h -1.099 c -2.748 0 -4.932 2.176 -4.932 4.932 v 35.772 c 0 2.688 2.108 4.811 4.819 4.811 c 2.688 0 4.872 -2.116 4.872 -4.811 v -22.31 l 8.516 13.139 c 1.032 1.544 2.319 2.5 4.111 2.5 s 3.08 -0.956 4.104 -2.5 l 8.644 -13.335 v 22.37 c 0 2.688 2.176 4.939 4.872 4.939 c 2.756 0 4.932 -2.176 4.932 -4.939 v -35.637 C 339.147 160.806 336.971 158.63 334.223 158.63 z" style="stroke: none; stroke-width: 1; stroke-dasharray: none; stroke-linecap: butt; stroke-linejoin: miter; stroke-miterlimit: 10; fill: #1e293b; fill-rule: nonzero; opacity: 1;" transform=" matrix(1 0 0 1 0 0) " stroke-linecap="round" />
  <path d="M 390.746 197.414 L 375.1 162.101 c -1.092 -2.447 -3.004 -3.923 -5.707 -3.923 h -0.572 c -2.696 0 -4.676 1.468 -5.783 3.923 l -15.631 35.313 c -0.324 0.708 -0.587 1.416 -0.587 2.116 c 0 2.568 2.003 4.616 4.555 4.616 c 2.04 0 3.712 -1.152 4.548 -3.072 l 3.147 -7.379 h 19.735 l 3.012 7.063 c 0.896 2.04 2.432 3.396 4.744 3.396 c 2.643 0 4.683 -2.116 4.683 -4.751 C 391.258 198.761 391.063 198.121 390.746 197.414 z M 362.729 184.975 l 6.212 -14.795 l 6.219 14.803 L 362.729 184.975 L 362.729 184.975 z" style="stroke: none; stroke-width: 1; stroke-dasharray: none; stroke-linecap: butt; stroke-linejoin: miter; stroke-miterlimit: 10; fill: #1e293b; fill-rule: nonzero; opacity: 1;" transform=" matrix(1 0 0 1 0 0) " stroke-linecap="round" />
  <path d="M 105.705 158.886 H 93.146 c -2.756 0 -4.939 2.184 -4.939 4.939 v 34.997 c 0 2.756 2.184 4.932 4.939 4.932 h 12.559 c 14.11 0 23.853 -9.803 23.853 -22.43 v -0.136 C 129.559 168.568 119.816 158.886 105.705 158.886 z M 119.236 181.459 c 0 7.944 -5.451 13.395 -13.53 13.395 h -7.627 v -27.061 h 7.627 c 8.079 0 13.53 5.579 13.53 13.53 V 181.459 z" style="stroke: none; stroke-width: 1; stroke-dasharray: none; stroke-linecap: butt; stroke-linejoin: miter; stroke-miterlimit: 10; fill: #1e293b; fill-rule: nonzero; opacity: 1;" transform=" matrix(1 0 0 1 0 0) " stroke-linecap="round" />
  <path d="M 143.714 158.502 c -2.756 0 -4.932 2.176 -4.932 4.939 v 35.765 c 0 2.763 2.176 4.939 4.932 4.939 c 2.756 0 4.932 -2.176 4.932 -4.939 v -35.765 C 148.646 160.678 146.47 158.502 143.714 158.502 z" style="stroke: none; stroke-width: 1; stroke-dasharray: none; stroke-linecap: butt; stroke-linejoin: miter; stroke-miterlimit: 10; fill: #1e293b; fill-rule: nonzero; opacity: 1;" transform=" matrix(1 0 0 1 0 0) " stroke-linecap="round" />
  <path d="M 178.206 158.886 h -13.402 c -2.756 0 -4.932 2.184 -4.932 4.939 v 35.381 c 0 2.763 2.176 4.939 4.932 4.939 c 2.756 0 4.932 -2.176 4.932 -4.939 v -8.915 h 7.507 c 10.067 0 18.138 -5.384 18.138 -15.767 v -0.136 C 195.381 165.233 188.913 158.886 178.206 158.886 z M 185.382 174.72 c 0 3.855 -2.884 6.792 -7.823 6.792 h -7.823 v -13.719 h 7.635 c 4.939 0 8.011 2.379 8.011 6.792 V 174.72 z" style="stroke: none; stroke-width: 1; stroke-dasharray: none; stroke-linecap: butt; stroke-linejoin: miter; stroke-miterlimit: 10; fill: #1e293b; fill-rule: nonzero; opacity: 1;" transform=" matrix(1 0 0 1 0 0) " stroke-linecap="round" />
  <path d="M 261.722 158.118 c -0.926 0 -1.777 0.158 -2.673 0.248 c -11.753 1.197 -20.164 10.029 -21.052 21.06 c -0.045 0.632 -0.188 1.25 -0.188 1.897 v 0.136 c 0 12.755 9.946 23.07 23.793 23.07 c 13.847 0 23.913 -10.451 23.913 -23.206 v -0.136 C 285.5 168.44 275.576 158.118 261.722 158.118 z M 275.177 181.459 c 0 7.688 -5.512 13.967 -13.455 13.967 c -7.959 0 -13.598 -6.415 -13.598 -14.103 v -0.136 c 0 -7.688 5.504 -13.967 13.463 -13.967 c 7.951 0 13.591 6.415 13.591 14.103 V 181.459 z" style="stroke: none; stroke-width: 1; stroke-dasharray: none; stroke-linecap: butt; stroke-linejoin: miter; stroke-miterlimit: 10; fill: #1e293b; fill-rule: nonzero; opacity: 1;" transform=" matrix(1 0 0 1 0 0) " stroke-linecap="round" />
  <path d="M 350.81 348.273 c -3.147 7.695 -10.692 13.139 -19.516 13.139 c -8.824 0 -16.369 -5.444 -19.516 -13.139 c -2.929 1.227 -6.061 1.762 -9.163 1.626 l -16.497 131.983 l 45.176 -45.176 l 45.176 45.176 l -16.497 -131.983 C 356.864 350.035 353.724 349.5 350.81 348.273 z" style="stroke: none; stroke-width: 1; stroke-dasharray: none; stroke-linecap: butt; stroke-linejoin: miter; stroke-miterlimit: 10; fill: #1e293b; fill-rule: nonzero; opacity: 1;" transform=" matrix(1 0 0 1 0 0) " stroke-linecap="round" />
  <path d="M 350.81 348.273 c -3.147 7.695 -10.692 13.139 -19.516 13.139 c -8.824 0 -16.369 -5.444 -19.516 -13.139 c -2.929 1.227 -6.061 1.762 -9.163 1.626 l -10.074 80.527 l 68.872 -68.864 l -1.446 -11.663 C 356.864 350.035 353.724 349.5 350.81 348.273 z" style="stroke: none; stroke-width: 1; stroke-dasharray: none; stroke-linecap: butt; stroke-linejoin: miter; stroke-miterlimit: 10; fill: #1e293b; fill-rule: nonzero; opacity: 1;" transform=" matrix(1 0 0 1 0 0) " stroke-linecap="round" />
  <path d="M 391.529 301.176 c 0 -8.832 -5.444 -16.361 -13.139 -19.509 c 3.23 -7.672 1.739 -16.843 -4.51 -23.078 c -6.234 -6.249 -15.413 -7.733 -23.078 -4.51 c -3.14 -7.695 -10.677 -13.139 -19.509 -13.139 s -16.369 5.444 -19.516 13.139 c -7.665 -3.23 -16.836 -1.739 -23.078 4.51 c -6.242 6.234 -7.725 15.413 -4.503 23.078 c -7.695 3.147 -13.139 10.677 -13.139 19.509 s 5.444 16.369 13.139 19.509 c -3.23 7.672 -1.739 16.843 4.503 23.078 c 6.242 6.249 15.42 7.733 23.078 4.51 c 3.147 7.695 10.684 13.139 19.516 13.139 s 16.369 -5.444 19.509 -13.139 c 7.672 3.23 16.843 1.739 23.078 -4.51 c 6.249 -6.234 7.733 -15.413 4.51 -23.078 C 386.086 317.545 391.529 310.008 391.529 301.176 z" style="stroke: none; stroke-width: 1; stroke-dasharray: none; stroke-linecap: butt; stroke-linejoin: miter; stroke-miterlimit: 10; fill: #1e293b; fill-rule: nonzero; opacity: 1;" transform=" matrix(1 0 0 1 0 0) " stroke-linecap="round" />
  <path d="M 373.88 258.59 c -6.234 -6.234 -15.413 -7.733 -23.07 -4.51 c -3.147 -7.695 -10.692 -13.139 -19.516 -13.139 c -8.824 0 -16.369 5.444 -19.516 13.139 c -7.665 -3.23 -16.836 -1.724 -23.078 4.51 c -6.242 6.234 -7.725 15.413 -4.495 23.078 c -7.703 3.147 -13.146 10.677 -13.146 19.509 c 0 8.824 5.444 16.369 13.146 19.509 c -3.238 7.672 -1.747 16.843 4.495 23.078 c 0.038 0.038 0.068 0.045 0.083 0.075 l 85.18 -85.18 C 373.933 258.65 373.911 258.62 373.88 258.59 z" style="stroke: none; stroke-width: 1; stroke-dasharray: none; stroke-linecap: butt; stroke-linejoin: miter; stroke-miterlimit: 10; fill: #1e293b; fill-rule: nonzero; opacity: 1;" transform=" matrix(1 0 0 1 0 0) " stroke-linecap="round" />
  <circle cx="331.298" cy="301.178" r="30.118" style="stroke: none; stroke-width: 1; stroke-dasharray: none; stroke-linecap: butt; stroke-linejoin: miter; stroke-miterlimit: 10; fill: #1e293b; fill-rule: nonzero; opacity: 1;" transform="  matrix(1 0 0 1 0 0) "/>
  <path d="M 331.294 271.059 c -16.632 0 -30.118 13.485 -30.118 30.118 c 0 8.35 3.411 15.91 8.915 21.368 l 42.571 -42.571 C 347.204 274.47 339.644 271.059 331.294 271.059 z" style="stroke: none; stroke-width: 1; stroke-dasharray: none; stroke-linecap: butt; stroke-linejoin: miter; stroke-miterlimit: 10; fill: #1e293b; fill-rule: nonzero; opacity: 1;" transform=" matrix(1 0 0 1 0 0) " stroke-linecap="round" />
  <rect x="90.35" y="233.41" rx="0" ry="0" width="135.53" height="7.53" style="stroke: none; stroke-width: 1; stroke-dasharray: none; stroke-linecap: butt; stroke-linejoin: miter; stroke-miterlimit: 10; fill: #1e293b; fill-rule: nonzero; opacity: 1;" transform=" matrix(1 0 0 1 0 0) "/>
  <rect x="90.35" y="263.53" rx="0" ry="0" width="135.53" height="7.53" style="stroke: none; stroke-width: 1; stroke-dasharray: none; stroke-linecap: butt; stroke-linejoin: miter; stroke-miterlimit: 10; fill: #1e293b; fill-rule: nonzero; opacity: 1;" transform=" matrix(1 0 0 1 0 0) "/>
  <rect x="90.35" y="293.65" rx="0" ry="0" width="135.53" height="7.53" style="stroke: none; stroke-width: 1; stroke-dasharray: none; stroke-linecap: butt; stroke-linejoin: miter; stroke-miterlimit: 10; fill: #1e293b; fill-rule: nonzero; opacity: 1;" transform=" matrix(1 0 0 1 0 0) "/>
  <rect x="90.35" y="323.76" rx="0" ry="0" width="67.77" height="7.53" style="stroke: none; stroke-width: 1; stroke-dasharray: none; stroke-linecap: butt; stroke-linejoin: miter; stroke-miterlimit: 10; fill: #1e293b; fill-rule: nonzero; opacity: 1;" transform=" matrix(1 0 0 1 0 0) "/>
  <path d="M 214.588 26.353 c 0 -2.839 0.557 -5.512 1.393 -8.064 L 92.213 75.415 c 7.582 0.384 14.524 2.997 20.247 7.243 l 103.642 -47.842 C 215.191 32.151 214.588 29.335 214.588 26.353 z" style="stroke: none; stroke-width: 1; stroke-dasharray: none; stroke-linecap: butt; stroke-linejoin: miter; stroke-miterlimit: 10; fill: #1e293b; fill-rule: nonzero; opacity: 1;" transform=" matrix(1 0 0 1 0 0) " stroke-linecap="round" />
  <path d="M 265.894 18.289 c 0.836 2.552 1.4 5.225 1.4 8.064 c 0 2.982 -0.602 5.798 -1.513 8.456 l 103.974 48 c 5.692 -4.013 12.544 -6.664 20.058 -7.341 L 265.894 18.289 z" style="stroke: none; stroke-width: 1; stroke-dasharray: none; stroke-linecap: butt; stroke-linejoin: miter; stroke-miterlimit: 10; fill: #1e293b; fill-rule: nonzero; opacity: 1;" transform=" matrix(1 0 0 1 0 0) " stroke-linecap="round" />
  <circle cx="240.943" cy="26.353" r="26.353" style="stroke: none; stroke-width: 1; stroke-dasharray: none; stroke-linecap: butt; stroke-linejoin: miter; stroke-miterlimit: 10; fill: #1e293b; fill-rule: nonzero; opacity: 1;" transform="  matrix(1 0 0 1 0 0) "/>
  <path d="M 240.941 0 c -14.562 0 -26.353 11.791 -26.353 26.353 c 0 7.401 3.072 14.072 7.989 18.854 l 37.218 -37.218 C 255.006 3.072 248.335 0 240.941 0 z" style="stroke: none; stroke-width: 1; stroke-dasharray: none; stroke-linecap: butt; stroke-linejoin: miter; stroke-miterlimit: 10; fill: #1e293b; fill-rule: nonzero; opacity: 1;" transform=" matrix(1 0 0 1 0 0) " stroke-linecap="round" />
</g>
<g style="stroke: none; stroke-width: 1; stroke-dasharray: none; stroke-linecap: butt; stroke-linejoin: miter; stroke-miterlimit: 10; fill: none; fill-rule: nonzero; opacity: 1;" transform="translate(273.8700000000001 318) scale(0.24 0.24)" >
  <path d="M 230.51 332.373 l -111.819 -76.02 c -8.374 -3.905 -18.28 -0.288 -22.169 8.07 L 18.44 431.87 c -6.305 13.497 7.023 27.81 20.821 22.727 l 69.204 -25.193 l 5.192 2.421 l 25.193 69.204 c 5.049 13.899 24.496 14.857 30.793 1.341 l 68.938 -147.831 C 242.48 346.195 238.863 336.267 230.51 332.373 z" style="stroke: none; stroke-width: 1; stroke-dasharray: none; stroke-linecap: butt; stroke-linejoin: miter; stroke-miterlimit: 10; fill: #d55c44; fill-rule: nonzero; opacity: 1;" transform=" matrix(1 0 0 1 0 0) " stroke-linecap="round" />
  <path d="M 493.564 431.87 L 415.48 264.423 c -3.899 -8.347 -13.805 -11.97 -22.169 -8.07 l -111.819 76.02 c -8.353 3.894 -11.97 13.822 -8.07 22.169 l 68.938 147.831 c 6.284 13.487 25.732 12.587 30.793 -1.341 l 25.193 -69.204 l 5.192 -2.421 l 69.204 25.193 C 486.63 459.696 499.839 445.304 493.564 431.87 z" style="stroke: none; stroke-width: 1; stroke-dasharray: none; stroke-linecap: butt; stroke-linejoin: miter; stroke-miterlimit: 10; fill: #d55c44; fill-rule: nonzero; opacity: 1;" transform=" matrix(1 0 0 1 0 0) " stroke-linecap="round" />
  <path d="M 256.001 367.032 c -101.186 0 -183.516 -82.325 -183.516 -183.516 S 154.815 0 256.001 0 s 183.516 82.325 183.516 183.516 S 357.188 367.032 256.001 367.032 z" style="stroke: none; stroke-width: 1; stroke-dasharray: none; stroke-linecap: butt; stroke-linejoin: miter; stroke-miterlimit: 10; fill: #F5DC48; fill-rule: nonzero; opacity: 1;" transform=" matrix(1 0 0 1 0 0) " stroke-linecap="round" />
  <path d="M 439.517 183.516 C 439.517 82.325 357.188 0 256.001 0 v 367.032 C 357.188 367.032 439.517 284.707 439.517 183.516 z" style="stroke: none; stroke-width: 1; stroke-dasharray: none; stroke-linecap: butt; stroke-linejoin: miter; stroke-miterlimit: 10; fill: #EDBA43; fill-rule: nonzero; opacity: 1;" transform=" matrix(1 0 0 1 0 0) " stroke-linecap="round" />
  <path d="M 256.001 33.367 c -82.797 0 -150.15 67.358 -150.15 150.15 s 67.353 150.15 150.15 150.15 s 150.15 -67.358 150.15 -150.15 S 338.799 33.367 256.001 33.367 z" style="stroke: none; stroke-width: 1; stroke-dasharray: none; stroke-linecap: butt; stroke-linejoin: miter; stroke-miterlimit: 10; fill: #E9B147; fill-rule: nonzero; opacity: 1;" transform=" matrix(1 0 0 1 0 0) " stroke-linecap="round" />
  <path d="M 406.151 183.516 c 0 -82.791 -67.353 -150.15 -150.15 -150.15 v 300.299 C 338.799 333.666 406.151 266.307 406.151 183.516 z" style="stroke: none; stroke-width: 1; stroke-dasharray: none; stroke-linecap: butt; stroke-linejoin: miter; stroke-miterlimit: 10; fill: #DF9642; fill-rule: nonzero; opacity: 1;" transform=" matrix(1 0 0 1 0 0) " stroke-linecap="round" />
  <path d="M 336.081 141.585 l -45.045 -6.562 l -20.131 -40.707 c -3.003 -6.228 -8.898 -9.343 -14.904 -9.343 s -11.901 3.114 -14.904 9.343 l -20.131 40.707 l -45.045 6.562 c -13.68 2.002 -19.019 18.796 -9.231 28.473 l 32.589 31.698 l -7.674 44.822 c -2.336 13.569 11.901 24.024 24.135 17.573 l 40.262 -21.132 l 40.262 21.132 c 12.123 6.34 26.582 -3.893 24.135 -17.573 l -7.674 -44.822 l 32.589 -31.698 C 355.211 160.382 349.65 143.587 336.081 141.585 z" style="stroke: none; stroke-width: 1; stroke-dasharray: none; stroke-linecap: butt; stroke-linejoin: miter; stroke-miterlimit: 10; fill: #F5DC48; fill-rule: nonzero; opacity: 1;" transform=" matrix(1 0 0 1 0 0) " stroke-linecap="round" />
  <path d="M 345.312 170.058 l -32.589 31.698 l 7.674 44.822 c 2.447 13.68 -12.012 23.913 -24.135 17.573 L 256 243.02 V 84.974 c 6.006 0 11.901 3.114 14.904 9.343 l 20.131 40.707 l 45.045 6.562 C 349.65 143.587 355.211 160.382 345.312 170.058 z" style="stroke: none; stroke-width: 1; stroke-dasharray: none; stroke-linecap: butt; stroke-linejoin: miter; stroke-miterlimit: 10; fill: #EDBA43; fill-rule: nonzero; opacity: 1;" transform=" matrix(1 0 0 1 0 0) " stroke-linecap="round" />
</g>
<g style="stroke: none; stroke-width: 1; stroke-dasharray: none; stroke-linecap: butt; stroke-linejoin: miter; stroke-miterlimit: 10; fill: none; fill-rule: nonzero; opacity: 1;" transform="translate(186.87 10) scale(0.21 0.21)" >
  <path d="M 512 256 c 0 141.383 -114.617 256 -256 256 S 0 397.383 0 256 S 114.617 0 256 0 S 512 114.617 512 256" style="stroke: none; stroke-width: 1; stroke-dasharray: none; stroke-linecap: butt; stroke-linejoin: miter; stroke-miterlimit: 10; fill: #fdd835; fill-rule: nonzero; opacity: 1;" transform=" matrix(1 0 0 1 0 0) " stroke-linecap="round" />
  <path d="M 161.174 417.666 c -24.691 6.091 -45.171 -18.529 -34.957 -41.816 c 21.839 -49.77 71.565 -84.542 129.404 -84.542 c 58.871 0 109.339 36.034 130.542 87.243 c 9.19 22.175 -11.255 45.383 -34.586 39.715 C 308.515 407.823 238.901 398.483 161.174 417.666" style="stroke: none; stroke-width: 1; stroke-dasharray: none; stroke-linecap: butt; stroke-linejoin: miter; stroke-miterlimit: 10; fill: #C03A2B; fill-rule: nonzero; opacity: 1;" transform=" matrix(1 0 0 1 0 0) " stroke-linecap="round" />
  <path d="M 291.31 361.931 c -13.586 0 -25.935 5.155 -35.31 13.568 c -9.375 -8.413 -21.725 -13.568 -35.31 -13.568 c -29.255 0 -52.966 23.711 -52.966 52.966 c 0 0.433 0.053 0.847 0.062 1.28 c 70.788 -16.11 134.312 -9.004 176.402 0.38 c 0.018 -0.556 0.088 -1.095 0.088 -1.66 C 344.276 385.642 320.565 361.931 291.31 361.931" style="stroke: none; stroke-width: 1; stroke-dasharray: none; stroke-linecap: butt; stroke-linejoin: miter; stroke-miterlimit: 10; fill: #FB7B76; fill-rule: nonzero; opacity: 1;" transform=" matrix(1 0 0 1 0 0) " stroke-linecap="round" />
  <path d="M 185.379 158.897 c 0 24.373 -11.855 44.138 -26.483 44.138 c -14.627 0 -26.483 -19.765 -26.483 -44.138 s 11.855 -44.138 26.483 -44.138 C 173.524 114.759 185.379 134.524 185.379 158.897" style="stroke: none; stroke-width: 1; stroke-dasharray: none; stroke-linecap: butt; stroke-linejoin: miter; stroke-miterlimit: 10; fill: #AF8066; fill-rule: nonzero; opacity: 1;" transform=" matrix(1 0 0 1 0 0) " stroke-linecap="round" />
  <path d="M 379.586 158.897 c 0 24.373 -11.855 44.138 -26.483 44.138 c -14.627 0 -26.483 -19.765 -26.483 -44.138 s 11.855 -44.138 26.483 -44.138 C 367.731 114.759 379.586 134.524 379.586 158.897" style="stroke: none; stroke-width: 1; stroke-dasharray: none; stroke-linecap: butt; stroke-linejoin: miter; stroke-miterlimit: 10; fill: #AF8066; fill-rule: nonzero; opacity: 1;" transform=" matrix(1 0 0 1 0 0) " stroke-linecap="round" />
</g>
</svg>