<svg xmlns="http://www.w3.org/2000/svg" width="65" height="64.999" viewBox="0 0 65 64.999"><defs><style>.a{fill:#d44030;}</style></defs><path class="a" d="M-1210.487,8h-.013a32.28,32.28,0,0,1-22.977-9.513A32.293,32.293,0,0,1-1243-24.5a32.285,32.285,0,0,1,9.513-22.981A32.29,32.29,0,0,1-1210.5-57a32.289,32.289,0,0,1,22.976,9.514A32.3,32.3,0,0,1-1178-24.508a32.306,32.306,0,0,1-9.516,22.988A32.275,32.275,0,0,1-1210.487,8Zm-4.537-31.942h0L-1226.772-12.2a3.081,3.081,0,0,0,1.339.315h29.281a3.1,3.1,0,0,0,1.339-.315l-11.749-11.746-3.565,3.429a1.041,1.041,0,0,1-.734.306,1.047,1.047,0,0,1-.737-.306l-3.425-3.429Zm21.68-13.218-11.746,11.746,11.746,11.749a3.108,3.108,0,0,0,.315-1.339v-20.82a3.075,3.075,0,0,0-.315-1.336Zm-34.9,0a3.071,3.071,0,0,0-.312,1.339V-15a3.093,3.093,0,0,0,.312,1.339l11.749-11.749-11.749-11.746Zm2.812-1.784a3.074,3.074,0,0,0-1.339.312l15.908,15.912,3.569-3.429,12.483-12.483a3.1,3.1,0,0,0-1.339-.312Z" transform="translate(1243 57)"/></svg>